<?xml version="1.0" encoding="utf-8"?>
<!-- Generator: Adobe Illustrator 17.0.0, SVG Export Plug-In . SVG Version: 6.00 Build 0)  -->
<!DOCTYPE svg PUBLIC "-//W3C//DTD SVG 1.1//EN" "http://www.w3.org/Graphics/SVG/1.1/DTD/svg11.dtd">
<svg version="1.1" id="图层_1" xmlns="http://www.w3.org/2000/svg" xmlns:xlink="http://www.w3.org/1999/xlink" x="0px" y="0px"
	 width="800px" height="368.515px" viewBox="0 0 800 368.515" enable-background="new 0 0 800 368.515" xml:space="preserve">
<g id="background">
</g>
<g>
	<path fill="#42D391" d="M476.846,68.339L242.603,9.34L24.297,70.989l-5.315-3.752l220.89-62.378
		c1.589-0.448,3.594-0.475,5.209-0.069l236.866,59.659L476.846,68.339z"/>
</g>
<g>
	<g>
		<path fill="#254932" d="M470.292,71.291L41.939,71.2c-12.211-0.003-22.113,6.249-22.116,13.965l-0.09,169.379
			c-0.005,7.715,9.889,13.972,22.1,13.974l428.353,0.092c12.211,0.002,22.113-6.249,22.117-13.965l0.091-169.378
			C492.397,77.551,482.503,71.294,470.292,71.291z"/>
	</g>
	<g opacity="0.3">
		<path d="M468.009,267.607c0,0-20.096,0.03-55.265,0.083c-17.584,0.085-38.937,0.187-63.429,0.305
			c-24.492,0.157-52.125,0.387-82.269,0.749c-15.072,0.17-30.773,0.348-47.022,0.531c-16.25,0.22-33.049,0.447-50.319,0.681
			c-34.541,0.458-70.965,0.94-108.646,1.44c-4.71,0.054-9.44,0.106-14.188,0.16l-1.781,0.02l-0.891,0.01l-0.569-0.005l-0.446-0.009
			c-0.613-0.02-1.148-0.007-1.827-0.054l-2.086-0.176c-2.661-0.321-5.293-0.904-7.888-1.853c-2.586-0.956-5.139-2.263-7.484-4.19
			c-0.291-0.244-0.585-0.482-0.871-0.736l-0.829-0.841c-0.564-0.534-1.057-1.21-1.557-1.86c-0.259-0.312-0.47-0.694-0.69-1.06
			c-0.216-0.371-0.439-0.733-0.637-1.12l-0.52-1.233l-0.244-0.624l-0.177-0.667c-0.115-0.446-0.222-0.895-0.321-1.344
			c-0.054-0.462-0.097-0.928-0.134-1.395l-0.048-0.7l-0.007-0.478l-0.01-0.931l-0.038-3.729c-0.026-2.488-0.051-4.98-0.077-7.475
			c-0.147-19.965-0.296-40.171-0.445-60.54c-0.087-20.369-0.174-40.898-0.261-61.51c-0.017-10.305-0.034-20.631-0.051-30.967
			l-0.002-1.938c-0.011-0.065,0.053-1.16,0.046-0.926l0.038-0.483l0.038-0.483c0.007-0.142,0.089-0.562,0.14-0.829
			c0.118-0.607,0.26-1.213,0.424-1.806c0.171-0.508,0.358-0.945,0.549-1.416l0.293-0.69c0.108-0.218,0.229-0.421,0.346-0.631
			l0.725-1.238c2.101-3.098,4.781-5.155,7.49-6.701c2.73-1.534,5.567-2.537,8.425-3.201c2.86-0.656,5.749-0.969,8.627-0.979
			c40.193,0.048,80.385,0.144,119.95,0.453c19.783,0.174,39.408,0.346,58.797,0.517c19.39,0.226,38.544,0.449,57.385,0.669
			c37.68,0.514,74.105,1.011,108.645,1.482c17.27,0.239,34.069,0.471,50.319,0.695c8.125,0.095,16.113,0.188,23.953,0.279
			c0.98,0.012,1.958,0.023,2.934,0.034l1.461,0.017c0.262,0.005,0.445-0.001,0.77,0.015l0.728,0.032
			c0.487,0.025,0.963,0.034,1.459,0.071l1.524,0.162c0.512,0.043,1.006,0.128,1.498,0.218c0.493,0.09,0.988,0.162,1.476,0.268
			c1.954,0.433,3.866,1.027,5.707,1.809c1.826,0.821,3.579,1.821,5.165,3.087c1.586,1.255,2.986,2.834,3.944,4.714
			c0.256,0.457,0.412,0.977,0.616,1.462c0.192,0.493,0.266,1.034,0.398,1.548c0.111,0.521,0.1,1.065,0.149,1.594
			c0.028,0.525-0.002,0.965,0.001,1.45c-0.043,3.797-0.085,7.554-0.128,11.266c-0.069,7.426-0.137,14.681-0.204,21.752
			c-0.112,14.145-0.218,27.562-0.318,40.171c-0.131,25.218-0.246,47.203-0.341,65.309c-0.023,9.053-0.045,17.135-0.063,24.168
			c-0.002,0.879-0.003,1.742-0.005,2.588c-0.003,0.424,0.005,0.839-0.008,1.259c-0.034,0.413-0.067,0.823-0.1,1.227
			c-0.257,1.621-0.939,3.055-1.766,4.276c-1.743,2.404-3.979,3.978-6.069,5.075c-4.249,2.148-7.904,2.688-10.304,2.965
			c-0.606,0.053-1.138,0.118-1.597,0.142c-0.46,0.014-0.845,0.026-1.154,0.035C468.323,267.597,468.009,267.607,468.009,267.607z
			 M468.009,267.607c0,0,0.314-0.01,0.932-0.031c0.309-0.01,0.694-0.023,1.154-0.038c0.459-0.025,0.991-0.091,1.597-0.146
			c2.398-0.283,6.05-0.834,10.288-2.989c2.083-1.099,4.311-2.679,6.039-5.075c0.821-1.217,1.492-2.647,1.744-4.248
			c0.032-0.405,0.065-0.814,0.097-1.227c0.011-0.408,0.002-0.832,0.005-1.253c-0.001-0.846-0.001-1.708-0.001-2.588
			c-0.011-7.032-0.023-15.115-0.038-24.168c-0.075-18.105-0.167-40.09-0.272-65.309c-0.086-12.609-0.178-26.027-0.275-40.171
			c-0.059-7.073-0.119-14.327-0.181-21.752c-0.038-3.713-0.077-7.469-0.115-11.267c-0.012-0.463,0.007-0.976-0.031-1.4
			c-0.057-0.414-0.045-0.837-0.144-1.245c-0.121-0.402-0.174-0.822-0.34-1.212c-0.18-0.384-0.299-0.792-0.52-1.161
			c-0.808-1.505-2.013-2.832-3.436-3.903c-1.419-1.08-3.017-1.948-4.695-2.658c-1.696-0.674-3.469-1.182-5.282-1.541
			c-0.453-0.089-0.915-0.143-1.372-0.216c-0.459-0.073-0.918-0.142-1.371-0.169l-1.365-0.117c-0.47-0.025-0.965-0.024-1.447-0.037
			l-0.728-0.015c-0.16-0.007-0.463,0.003-0.688,0.003L466.1,73.69c-0.976,0.011-1.953,0.022-2.934,0.033
			c-7.84,0.088-15.828,0.178-23.953,0.269c-16.25,0.218-33.049,0.442-50.319,0.674c-34.541,0.457-70.965,0.938-108.646,1.436
			c-18.84,0.211-37.994,0.427-57.385,0.645c-19.39,0.162-39.015,0.326-58.798,0.492c-39.564,0.292-79.757,0.371-119.95,0.402
			c-4.268,0.029-8.605,0.924-11.999,2.822c-1.677,0.931-3.072,2.129-3.856,3.284c-0.075,0.146-0.154,0.288-0.24,0.427
			c-0.041,0.069-0.093,0.138-0.128,0.206l-0.072,0.204c-0.045,0.127-0.124,0.279-0.165,0.377c0.012,0.034,0.003,0.055-0.031,0.075
			c-0.013,0.048-0.048-0.065-0.06,0.116l-0.039,0.483l-0.039,0.483c-0.025,0.556-0.014-0.217-0.011,0.041l-0.004,1.938
			c-0.028,10.336-0.056,20.662-0.084,30.967c-0.109,20.611-0.218,41.141-0.327,61.51c-0.171,20.368-0.342,40.575-0.51,60.539
			c-0.029,2.495-0.057,4.988-0.085,7.475l-0.042,3.729l-0.011,0.931l-0.003,0.453l0.025,0.228c0.013,0.151,0.017,0.305,0.014,0.46
			c0.045,0.152,0.083,0.305,0.113,0.461c0.239,1.243,1.246,2.623,2.613,3.814c1.379,1.197,3.14,2.192,5.033,2.936
			c1.895,0.747,3.948,1.258,6.013,1.558l1.471,0.167c0.22,0.038,0.564,0.036,0.848,0.054l0.891,0.039l0.768,0.031l0.891,0.01
			l1.781,0.021c4.748,0.056,9.477,0.111,14.188,0.166c37.68,0.516,74.105,1.014,108.645,1.486
			c17.27,0.241,34.069,0.475,50.319,0.703c16.25,0.19,31.95,0.375,47.022,0.552c30.144,0.375,57.777,0.617,82.269,0.784
			c24.492,0.128,45.844,0.24,63.429,0.333C447.913,267.568,468.009,267.607,468.009,267.607z"/>
	</g>
	<g>
		<path fill="none" d="M510.279,220.048c-0.453,0.524-0.916,1.046-1.376,1.569l-0.001,1.187
			C509.406,221.892,509.879,220.975,510.279,220.048z"/>
		<path fill="none" d="M485.532,75.15c-0.509-0.307-1.041-0.597-1.594-0.872C484.348,74.646,484.9,74.954,485.532,75.15z"/>
		<path fill="none" d="M21.691,79.548c4.541-2.498,8.997-5.075,13.427-7.669C29.102,73.109,24.215,75.925,21.691,79.548z"/>
		<path fill="none" d="M19.788,149.094v0.274c1.238-0.484,2.473-0.973,3.696-1.471C22.255,148.297,21.022,148.696,19.788,149.094z"
			/>
		<path fill="none" d="M508.816,256.044c0.89-1.254,1.68-2.537,2.339-3.853c-0.749,0.589-1.51,1.173-2.27,1.758v0.7
			C508.885,255.118,508.858,255.582,508.816,256.044z"/>
		<path fill="#FBC16C" d="M91.409,71.211l13.606,0.003c6.403-3.317,12.969-6.51,19.75-9.521c0.727-0.322,1.465-0.635,2.202-0.95
			l-11.527-0.002c-1.999,0.876-3.993,1.754-5.987,2.629C103.462,65.997,97.414,68.586,91.409,71.211z"/>
		<path fill="#FBC16C" d="M492.326,210.669c5.752-5.321,11.254-10.755,16.59-16.253l0.008-14.226
			c-5.575,4.163-11.09,8.358-16.587,12.564L492.326,210.669z"/>
		<path fill="#FBC16C" d="M78.638,71.208c5.685-3.003,11.401-5.982,17.131-8.952c0.977-0.506,1.956-1.013,2.937-1.52l-17.183-0.004
			c-6.865,3.475-13.67,7-20.536,10.472L78.638,71.208z"/>
		<path fill="#FBC16C" d="M3.224,115.794v0.779c5.602-2.94,11.125-5.942,16.586-8.988l0.001-1.889
			C14.194,109.009,8.657,112.372,3.224,115.794z"/>
		<path fill="#FBC16C" d="M81.499,71.208l6.717,0.002c7.618-3.366,15.317-6.659,22.947-10.015c0.347-0.153,0.693-0.305,1.04-0.457
			l-10.602-0.002c-1.055,0.549-2.11,1.097-3.163,1.644C92.781,65.313,87.126,68.249,81.499,71.208z"/>
		<path fill="#FBC16C" d="M108.037,71.214l30.445,0.007c6.908-3.645,14.029-7.16,21.382-10.471l-29.655-0.006
			c-1.056,0.442-2.102,0.892-3.137,1.352C120.537,64.996,114.209,68.048,108.037,71.214z"/>
		<path fill="#FBC16C" d="M168.618,71.227c7.102-3.511,14.073-7.132,21.362-10.472l-11.829-0.003
			c-4.818,3.388-9.409,6.904-13.903,10.474L168.618,71.227z"/>
		<path fill="#FBC16C" d="M238.335,71.242l6.046,0.002c6.554-3.632,13.253-7.148,20.186-10.472l-5.482-0.002
			c-0.227,0.125-0.45,0.252-0.679,0.378C251.918,64.676,245.152,67.979,238.335,71.242z"/>
		<path fill="#FBC16C" d="M56.75,278.998l5.357,0.001c6.149-3.498,12.322-6.978,18.473-10.473l-9.296-0.002
			C65.924,271.741,60.879,275.218,56.75,278.998z"/>
		<path fill="#FBC16C" d="M266.554,71.248c0.966-0.466,1.921-0.945,2.857-1.445c4.771-2.935,9.401-5.962,13.967-9.029l-4.512-0.001
			c-5.841,3.515-11.721,7.004-17.632,10.474L266.554,71.248z"/>
		<path fill="#FBC16C" d="M10.163,204.336c3.188-1.651,6.395-3.286,9.598-4.924l0.001-1.565
			C16.545,199.997,13.334,202.155,10.163,204.336z"/>
		<path fill="#FBC16C" d="M219.107,71.238l5.892,0.001c6.557-3.649,13.288-7.176,20.272-10.472l-11.339-0.002
			C228.482,64.015,223.306,67.388,219.107,71.238z"/>
		<path fill="#FBC16C" d="M216.907,71.238c4.057-3.856,9.073-7.235,14.404-10.474l-27.031-0.006
			c-4.01,3.534-7.87,7.178-12.324,10.475L216.907,71.238z"/>
		<path fill="#FBC16C" d="M185.715,69.622c0.329-0.044,0.647-0.099,0.956-0.164c0.003-0.023,0.002-0.045,0.009-0.069
			c0.988-3.084,4.003-5.221,8.678-6.259c0.626-0.139,1.398,0.312,1.139,0.719c-2.196,3.458-5.666,6.754-12.012,7.059
			c-0.64,0.031-1.003-0.395-0.892-0.741c1.059-3.334,3.754-6.022,7.218-8.347c-6.548,3.004-12.84,6.234-19.205,9.406l17.825,0.004
			c4.533-3.313,8.493-6.92,12.551-10.475l-6.787-0.002C190.86,63.175,187.247,65.982,185.715,69.622z"/>
		<path fill="#FBC16C" d="M358.418,279.063l5.882,0.001c7.312-3.588,14.78-7.049,22.296-10.472l-15.966-0.004
			C366.4,271.989,362.377,275.512,358.418,279.063z"/>
		<path fill="#FBC16C" d="M492.32,224.069c5.752-3.724,11.297-7.568,16.587-11.561l0.009-15.834
			c-5.327,5.464-10.83,10.866-16.59,16.151L492.32,224.069z"/>
		<path fill="#FBC16C" d="M58.018,71.203c6.873-3.466,13.686-6.989,20.545-10.472l-4.145-0.001
			c-6.636,3.536-13.401,6.979-20.097,10.472L58.018,71.203z"/>
		<path fill="#FBC16C" d="M508.929,171.461l0.001-1.722c-4.869,4.385-9.551,8.859-14.318,13.289
			C499.425,179.199,504.171,175.328,508.929,171.461z"/>
		<path fill="#FBC16C" d="M492.337,190.924c5.494-4.198,11.011-8.383,16.588-12.536l0.002-5.033
			c-5.494,4.466-10.977,8.935-16.587,13.33L492.337,190.924z"/>
		<path fill="#FBC16C" d="M19.797,133.926c-5.641,2.421-11.174,4.942-16.585,7.563l-0.007,11.878
			c5.408-1.97,11.005-3.758,16.586-5.566L19.797,133.926z"/>
		<path fill="#FBC16C" d="M276.169,60.773l-8.537-0.002c-7.049,3.312-13.851,6.828-20.497,10.472l11.378,0.003
			C264.432,67.777,270.318,64.286,276.169,60.773z"/>
		<path fill="#FBC16C" d="M19.788,150.711c-5.518,2.134-11.134,4.177-16.586,6.364L3.2,164.835
			c5.48-2.703,11.069-5.324,16.586-8.002L19.788,150.711z"/>
		<path fill="#FBC16C" d="M19.784,158.297c-5.531,2.672-11.122,5.296-16.586,8.014l-0.001,2.211
			c5.47-2.07,11.072-4.006,16.585-6.032L19.784,158.297z"/>
		<path fill="#FBC16C" d="M19.788,149.094c-5.595,1.807-11.193,3.606-16.584,5.605l-0.001,1.022
			c5.473-2.164,11.089-4.204,16.585-6.353L19.788,149.094z"/>
		<path fill="#FBC16C" d="M40.121,71.25c6.545-3.532,12.914-7.195,19.661-10.524l-2.86-0.001
			c-6.211,3.459-12.276,7.054-18.359,10.635C39.077,71.311,39.597,71.277,40.121,71.25z"/>
		<path fill="#FBC16C" d="M48.135,60.725l-6.19-0.002c-20.085-0.005-36.644,9.712-38.52,22.098
			c11.891-6.345,23.649-12.808,36.568-18.298C42.79,63.335,45.487,62.054,48.135,60.725z"/>
		<path fill="#FBC16C" d="M51.579,71.202c6.674-3.498,13.418-6.945,20.051-10.472l-8.807-0.002
			c-6.849,3.263-13.265,6.908-19.795,10.472L51.579,71.202z"/>
		<path fill="#FBC16C" d="M35.119,71.879c6.38-3.736,12.714-7.508,19.191-11.153l-3.038-0.001c-2.902,1.481-5.867,2.908-8.96,4.221
			C28.51,70.81,15.997,77.713,3.271,84.448c-0.011,0.238-0.029,0.473-0.029,0.712L3.24,88.85c6.399-2.885,12.5-6.029,18.452-9.303
			C24.215,75.925,29.102,73.109,35.119,71.879z"/>
		<path fill="#FBC16C" d="M19.812,104.075l0.008-11.939c-5.015,2.844-9.847,5.818-14.389,8.996c-0.802,0.562-2.108-0.269-1.31-0.828
			c2.702-1.89,5.509-3.705,8.392-5.465c-3.078,1.679-6.177,3.344-9.279,5.006l-0.008,14.279
			C8.658,110.719,14.201,107.376,19.812,104.075z"/>
		<path fill="#FBC16C" d="M19.823,85.165c0.001-1.206,0.242-2.375,0.697-3.49c-5.574,3.026-11.298,5.922-17.282,8.59v0.493
			c0.087-0.07,0.173-0.14,0.27-0.206c0.818-0.552,2.125,0.277,1.309,0.828c-0.254,0.171-0.393,0.379-0.567,0.583
			c-0.183,0.215-0.405,0.409-0.668,0.587c-0.109,0.073-0.225,0.119-0.346,0.147l-0.003,5.641c5.587-2.982,11.163-5.976,16.586-9.074
			L19.823,85.165z"/>
		<path fill="#FBC16C" d="M19.809,109.15c-5.463,3.033-10.98,6.026-16.586,8.953l-0.006,11.773
			c5.476-3.29,11.013-6.538,16.586-9.761L19.809,109.15z"/>
		<path fill="#FBC16C" d="M499.52,69.275c-0.234-0.169-0.462-0.34-0.702-0.505c-0.482,0.704-1.043,1.45-1.681,2.192
			C497.95,70.411,498.742,69.848,499.52,69.275z"/>
		<path fill="#FBC16C" d="M459.669,71.289l10.623,0.002c2.793,0.001,5.463,0.332,7.921,0.929c0.539-0.468,1.072-0.935,1.63-1.391
			c2.955-2.418,6.002-4.711,9.677-6.707c0.022-0.012,0.044-0.024,0.066-0.037c-4.033-1.473-8.519-2.504-13.296-2.977
			C472.46,65.296,466.083,68.297,459.669,71.289z"/>
		<path fill="#FBC16C" d="M164.071,64.835c1.231-0.726,2.487-1.433,3.753-2.133c-5.83,2.85-11.697,5.67-17.523,8.522l11.59,0.002
			c4.464-3.564,9.019-7.079,13.786-10.474h-1.356c-3.047,1.584-6.048,3.205-8.939,4.909
			C164.509,66.176,163.196,65.35,164.071,64.835z"/>
		<path fill="#FBC16C" d="M454.554,268.606c-2.042,1.678-4.068,3.362-6.056,5.068c-2.107,1.809-4.221,3.616-6.37,5.408l8.281,0.002
			c4.235-3.432,8.332-6.935,12.354-10.475L454.554,268.606z"/>
		<path fill="#FBC16C" d="M154.116,67.883c4.899-2.373,9.806-4.74,14.681-7.132l-5.715-0.002
			c-7.47,3.299-14.708,6.815-21.718,10.473l5.906,0.001C149.547,70.105,151.828,68.992,154.116,67.883z"/>
		<path fill="#FBC16C" d="M508.816,256.044c0.042-0.461,0.069-0.926,0.069-1.395v-0.7c-1.039,0.801-2.079,1.601-3.103,2.408
			c0.544,0.143,0.899,0.605,0.358,0.952c-1.219,0.781-2.398,1.579-3.552,2.389c-1.091,4.2-5.288,7.657-11.461,9.404
			c-0.776,0.221-1.822-0.26-1.268-0.801c2.313-2.258,4.798-4.424,7.458-6.501c-2.368,1.137-4.586,2.42-6.694,3.792
			c-3.788,4.531-8.14,8.858-12.87,13.023c3.345-0.42,6.533-1.115,9.508-2.042c2.215-1.864,4.341-3.748,6.465-5.55
			C499.303,266.289,504.997,261.432,508.816,256.044z"/>
		<path fill="#FBC16C" d="M451.099,71.287c4.647-3.834,10.099-7.292,15.977-10.473l-23.272-0.005
			c-4.512,3.362-8.7,6.9-12.828,10.475L451.099,71.287z"/>
		<path fill="#FBC16C" d="M412.591,71.279l16.119,0.004c4.102-3.562,8.242-7.1,12.681-10.475l-12.578-0.003
			c-2.006,1.266-3.993,2.547-5.961,3.839C419.449,66.877,416.036,69.09,412.591,71.279z"/>
		<path fill="#FBC16C" d="M492.386,101.049l-0.01,16.585c5.794-3.415,11.131-7.128,16.586-10.757l0.01-16.513
			C503.573,94.021,498.183,97.679,492.386,101.049z"/>
		<path fill="#FBC16C" d="M271.064,70.42c-0.45,0.279-0.909,0.552-1.363,0.828l1.738,0.001c6.213-3.317,12.111-6.843,17.85-10.473
			l-3.303-0.001C281.26,64.178,276.386,67.529,271.064,70.42z"/>
		<path fill="#FBC16C" d="M19.773,179.015l0.008-15.173c-5.525,2.019-11.126,3.961-16.586,6.049l-0.011,19.589
			C8.642,185.937,14.088,182.389,19.773,179.015z"/>
		<path fill="#FBC16C" d="M492.369,133.673c3.914-2.967,7.642-6.044,11.308-9.109c1.729-1.444,3.493-2.866,5.279-4.274l0.003-6.088
			c-5.165,5.172-10.599,10.287-16.589,15.063V133.673z"/>
		<path fill="#FBC16C" d="M492.39,93.934c5.105-3.836,10.525-7.497,16.428-10.816c-0.249-1.803-0.803-3.55-1.64-5.221
			c-4.755,3.458-9.689,6.807-14.786,10.057L492.39,93.934z"/>
		<path fill="#FBC16C" d="M484.954,68.727c0.631-0.383,1.302-0.748,2.009-1.082c0.407-0.273,0.833-0.538,1.296-0.791
			c0.276-0.149,0.587-0.167,0.863-0.117c1.458-0.538,2.914-0.932,4.176-1.114c-0.587-0.275-1.187-0.537-1.797-0.791
			C489.25,66.097,486.974,67.35,484.954,68.727z"/>
		<path fill="#FBC16C" d="M409.888,71.279c4.65-2.938,9.248-5.917,13.868-8.907c0.813-0.524,1.626-1.047,2.442-1.567l-6.052-0.002
			c-7.21,3.327-14.232,6.81-21.014,10.472L409.888,71.279z"/>
		<path fill="#FBC16C" d="M488.957,72.318c-1.314,0.936-3.013,1.594-5.239,1.748c0.066,0.073,0.144,0.143,0.22,0.211
			c0.554,0.275,1.086,0.566,1.594,0.872c0.515,0.159,1.077,0.245,1.655,0.219c4.802-0.22,8.347-4.33,10.276-7.487
			c-0.714-0.444-1.453-0.871-2.218-1.28C494.479,69.031,492.123,71.007,488.957,72.318z"/>
		<path fill="#FBC16C" d="M488.8,77.63c2.27,2.195,3.596,4.818,3.594,7.636l-0.001,1.015c4.847-3.125,9.548-6.339,14.082-9.654
			c-1.403-2.34-3.359-4.506-5.764-6.441C497.053,72.849,493.002,75.285,488.8,77.63z"/>
		<path fill="#FBC16C" d="M321.788,71.259c5.958-3.358,11.736-6.826,17.213-10.472l-2.208-0.001
			c-6.291,3.649-12.99,7.032-19.614,10.472L321.788,71.259z"/>
		<path fill="#FBC16C" d="M500.064,259.204c2.708-2.43,5.822-4.712,8.821-7.035l0.005-8.326
			c-5.087,6.275-10.861,12.376-15.759,18.625C495.304,261.25,497.606,260.148,500.064,259.204z"/>
		<path fill="#FBC16C" d="M315.409,66.517c-2.224,1.544-4.392,3.125-6.497,4.74l5.395,0.001c6.647-3.464,13.418-6.843,19.803-10.472
			l-9.819-0.002C321.18,62.634,318.218,64.564,315.409,66.517z"/>
		<path fill="#FBC16C" d="M394.678,278.815c-0.131,0.085-0.262,0.171-0.393,0.256l1.47,0.001
			c5.731-3.534,11.526-7.028,17.389-10.474l-2.404-0.001C405.323,271.967,399.958,275.366,394.678,278.815z"/>
		<path fill="#FBC16C" d="M492.303,254.645c-0.005,7.715-9.906,13.967-22.117,13.965l-5.146-0.002
			c-4.002,3.537-8.079,7.04-12.285,10.475l17.425,0.004c0.116,0,0.23-0.005,0.346-0.005c1.876-1.5,3.798-2.979,5.718-4.475
			c3.98-3.104,8.017-6.464,12.536-9.47c1.014-1.166,2.013-2.34,2.969-3.532c5.418-6.757,11.801-13.41,17.141-20.314l0.008-14.851
			c-4.099,6.315-10.201,12.26-16.59,17.946L492.303,254.645z"/>
		<path fill="#FBC16C" d="M324.54,71.26l30.358,0.006c4.71-3.529,9.488-7.021,14.343-10.473l-27.713-0.006
			C336.13,64.437,330.429,67.905,324.54,71.26z"/>
		<path fill="#FBC16C" d="M274.27,71.249l32.179,0.007c2.767-2.152,5.65-4.234,8.629-6.237c2.137-1.436,4.344-2.854,6.62-4.237
			l-29.781-0.006C286.234,64.4,280.394,67.918,274.27,71.249z"/>
		<path fill="#FBC16C" d="M395.023,64.139c-4.302,2.263-8.199,4.573-11.927,7.134l9.53,0.002
			c5.439-3.586,10.997-7.107,16.765-10.473L400.93,60.8C399.058,61.963,397.069,63.064,395.023,64.139z"/>
		<path fill="#FBC16C" d="M360.78,71.268c4.786-3.336,9.388-6.766,13.427-10.474l-2.485-0.001
			c-4.875,3.452-9.68,6.943-14.409,10.474L360.78,71.268z"/>
		<path fill="#FBC16C" d="M491.226,275.143c8.531-3.505,14.752-9.07,16.869-15.576c-3.851,4.478-8.78,8.628-13.561,12.722
			C493.44,273.226,492.341,274.182,491.226,275.143z"/>
		<path fill="#FBC16C" d="M395.188,71.275h1.127c6.685-3.659,13.606-7.145,20.719-10.472l-4.926-0.001
			C406.275,64.157,400.669,67.681,395.188,71.275z"/>
		<path fill="#FBC16C" d="M507.013,221.361c0.64-0.731,1.266-1.468,1.891-2.203l0.003-4.837
			c-5.301,3.931-10.847,7.721-16.587,11.392l-0.005,10.419C497.588,231.373,502.541,226.477,507.013,221.361z"/>
		<path fill="#FBC16C" d="M452.17,268.606l-36.245-0.009c-5.892,3.445-11.709,6.94-17.468,10.474l41.355,0.009
			c3.035-2.514,5.998-5.065,8.963-7.609C449.894,270.51,451.029,269.555,452.17,268.606z"/>
		<path fill="#FBC16C" d="M492.313,238.165l-0.003,3.957c2.038-1.901,4.025-3.821,5.913-5.782
			c4.107-4.266,8.042-8.779,10.679-13.536l0.001-1.187c-0.367,0.417-0.729,0.835-1.099,1.251
			C503.066,228.157,497.86,233.233,492.313,238.165z"/>
		<path fill="#FBC16C" d="M380.617,71.272c4.12-2.878,8.346-5.445,13.097-7.961c1.55-0.82,3.067-1.652,4.531-2.512l-21.795-0.005
			c-3.947,3.713-8.465,7.146-13.186,10.475L380.617,71.272z"/>
		<path fill="#FBC16C" d="M144.835,268.54c-9.225,3.332-18.36,6.748-27.176,10.472l20.131,0.005
			c6.963-3.675,14.301-7.066,21.619-10.473L144.835,268.54z"/>
		<path fill="#FBC16C" d="M121.474,268.535l-14.626-0.003c-5.545,3.431-10.959,6.956-16.38,10.474l15.185,0.003
			C110.742,275.385,115.9,271.827,121.474,268.535z"/>
		<path fill="#FBC16C" d="M66.617,269.647c-4.821,2.281-12.247,5.475-15.525,9.351l3.444,0.001c3.686-3.489,8.14-6.725,12.927-9.741
			C67.182,269.388,66.896,269.514,66.617,269.647z"/>
		<path fill="#FBC16C" d="M408.126,268.596h-2.185c-5.112,3.558-10.293,7.07-15.64,10.474h1.408c0.145-0.094,0.29-0.188,0.432-0.283
			C397.404,275.352,402.74,271.959,408.126,268.596z"/>
		<path fill="#FBC16C" d="M508.96,112.015l0.003-3.461c-5.412,3.629-10.751,7.309-16.588,10.664l-0.005,8.179
			C498.355,122.5,503.783,117.272,508.96,112.015z"/>
		<path fill="#FBC16C" d="M492.388,95.751l-0.002,3.718c5.775-3.424,11.158-7.127,16.587-10.802l0.002-3.398
			c0-0.223-0.017-0.444-0.027-0.665C502.992,88.03,497.535,91.807,492.388,95.751z"/>
		<path fill="#FBC16C" d="M124.181,268.535c-5.694,3.266-10.928,6.832-16.059,10.475l6.259,0.002
			c8.674-3.737,17.675-7.154,26.786-10.472L124.181,268.535z"/>
		<path fill="#FBC16C" d="M19.801,125.879l0.002-4.181c-5.576,3.233-11.116,6.492-16.586,9.795l-0.003,3.983
			C8.455,132.071,13.947,128.833,19.801,125.879z"/>
		<path fill="#FBC16C" d="M61.777,270.53c1.387-0.69,2.808-1.353,4.243-2.007h-2.288c-0.477,0.277-0.954,0.552-1.432,0.828
			c-5.443,3.152-10.82,6.572-16.584,9.645l3.381,0.001C51.76,275.545,57.416,272.699,61.777,270.53z"/>
		<path fill="#FBC16C" d="M256.261,60.769l-7.861-0.002c-7.103,3.28-13.935,6.809-20.586,10.473l7.566,0.002
			C242.486,67.862,249.542,64.442,256.261,60.769z"/>
		<path fill="#FBC16C" d="M19.732,254.544l0.004-8.99c-5.559,2.64-11.078,5.313-16.586,7.998l-0.001,0.988
			c-0.002,4.454,1.9,8.629,5.205,12.23c4.276-2.343,8.675-4.601,13.08-6.839C20.338,258.274,19.731,256.454,19.732,254.544z"/>
		<path fill="#FBC16C" d="M25.843,266.849c0.576-0.541,1.202-1.06,1.853-1.565c-2.237-1.177-4.096-2.63-5.456-4.274
			c-1.58,0.812-3.158,1.625-4.726,2.446c-2.755,1.44-5.44,2.913-8.103,4.401c1.763,1.711,3.853,3.275,6.219,4.653
			C18.65,270.394,22.12,268.523,25.843,266.849z"/>
		<path fill="#FBC16C" d="M3.214,137.293l-0.002,2.744c5.417-2.603,10.943-5.112,16.586-7.516l0.002-3.798
			C14.753,131.9,9.169,134.773,3.214,137.293z"/>
		<path fill="#FBC16C" d="M44.991,268.519c-4.461,3.09-8.71,6.589-13.581,9.566c3.316,0.588,6.809,0.909,10.418,0.91l1.206,0.001
			c6.367-3.229,12.246-6.969,18.053-10.474L44.991,268.519z"/>
		<path fill="#FBC16C" d="M21.272,272.97c0.572-1.204,1.316-2.375,2.189-3.505c-2.302,1.177-4.455,2.451-6.424,3.828
			c0.81,0.429,1.652,0.834,2.517,1.22c0.022-0.019,0.045-0.039,0.068-0.058C20.184,273.965,20.722,273.465,21.272,272.97z"/>
		<path fill="#FBC16C" d="M327.202,268.58l-12.45-0.003c-4.786,3.595-9.699,7.111-14.871,10.475l10.529,0.002
			C316.158,275.672,321.687,272.131,327.202,268.58z"/>
		<path fill="#FBC16C" d="M280.434,268.569l-15.79-0.003c-3.161,3.621-6.629,7.133-10.452,10.475l13.224,0.003
			C270.764,275.2,275.341,271.749,280.434,268.569z"/>
		<path fill="#FBC16C" d="M283.04,268.57c-5.254,3.177-10.016,6.628-13.51,10.475l9.635,0.002
			c5.259-3.495,10.505-6.998,15.791-10.475L283.04,268.57z"/>
		<path fill="#FBC16C" d="M179.179,268.548l-13.072-0.002c-5.976,3.668-12.054,7.271-18.562,10.473l12.326,0.003
			C167.054,276.208,173.166,272.419,179.179,268.548z"/>
		<path fill="#FBC16C" d="M360.913,268.586l-31.204-0.006c-5.492,3.536-10.978,7.077-16.662,10.473l31.899,0.007
			C349.918,275.381,355.334,271.93,360.913,268.586z"/>
		<path fill="#FBC16C" d="M363.603,268.587c-5.646,3.351-11.149,6.8-16.215,10.474l8.779,0.002
			c3.945-3.545,7.947-7.066,12.139-10.475L363.603,268.587z"/>
		<path fill="#FBC16C" d="M297.532,268.573c-5.298,3.474-10.553,6.976-15.813,10.475l15.56,0.003
			c5.243-3.355,10.218-6.871,15.05-10.475L297.532,268.573z"/>
		<path fill="#FBC16C" d="M190.951,268.55l-9.266-0.002c-5.831,3.769-11.672,7.531-18.43,10.473l9.849,0.002
			C179.649,276.008,185.368,272.326,190.951,268.55z"/>
		<path fill="#FBC16C" d="M501.7,128.13c-3.021,2.485-6.112,4.954-9.333,7.343l-0.007,12.345c1.363-1.344,2.747-2.68,4.182-3.993
			c3.903-3.637,8.011-7.168,12.407-10.548l0.006-11.088C506.522,124.157,504.115,126.142,501.7,128.13z"/>
		<path fill="#FBC16C" d="M257.066,268.565c-4.338,3.692-9.204,7.167-14.339,10.474l9.18,0.002
			c3.89-3.333,7.405-6.848,10.618-10.475L257.066,268.565z"/>
		<path fill="#FBC16C" d="M195.997,268.552l-2.536-0.001c-5.468,3.712-11.006,7.381-17.268,10.474l3.867,0.001
			C185.162,275.415,190.45,271.893,195.997,268.552z"/>
		<path fill="#FBC16C" d="M239.203,268.561c-5.475,3.387-10.813,6.859-15.919,10.474l16.856,0.003
			c5.227-3.304,10.197-6.779,14.639-10.474L239.203,268.561z"/>
		<path fill="#FBC16C" d="M236.563,268.56l-37.886-0.008c-5.626,3.327-10.977,6.854-16.139,10.473l38.274,0.009
			C225.855,275.415,231.138,271.943,236.563,268.56z"/>
		<path fill="#FBC16C" d="M104.237,268.531l-20.897-0.005c-6.149,3.5-12.329,6.978-18.484,10.473l23.032,0.005
			C93.308,275.494,98.714,271.972,104.237,268.531z"/>
		<path fill="#FBC16C" d="M19.748,224.382c-5.587,2.761-11.112,5.575-16.586,8.43l-0.003,4.379
			c5.453-2.312,10.996-4.545,16.585-6.733L19.748,224.382z"/>
		<path fill="#FBC16C" d="M492.359,150.085l-0.005,12.473c5.018-4.709,10.495-9.183,16.588-13.265l0.007-13.618
			c-1.05,0.764-2.09,1.534-3.106,2.317C500.87,141.823,496.517,145.913,492.359,150.085z"/>
		<path fill="#FBC16C" d="M19.758,207.143c-5.287,3.259-10.823,6.356-16.587,9.268l-0.008,14.886
			c5.473-2.843,10.999-5.646,16.586-8.395L19.758,207.143z"/>
		<path fill="#FBC16C" d="M19.742,236.61c-5.358,2.421-10.875,4.699-16.585,6.798l-0.005,8.651
			c5.501-2.69,11.019-5.368,16.586-8.002L19.742,236.61z"/>
		<path fill="#FBC16C" d="M19.745,231.827c-5.595,2.195-11.137,4.437-16.586,6.763l-0.002,3.455
			c5.709-2.129,11.228-4.432,16.585-6.882L19.745,231.827z"/>
		<path fill="#FBC16C" d="M3.173,211.784l-0.001,3.135c5.773-2.959,11.304-6.109,16.586-9.417l0.001-2.516
			C14.401,206.043,8.877,208.98,3.173,211.784z"/>
		<path fill="#FBC16C" d="M492.34,183.086c5.531-5.116,10.916-10.303,16.59-15.354l0.009-16.758
			c-6.105,4.202-11.577,8.807-16.589,13.647L492.34,183.086z"/>
		<path fill="#FBC16C" d="M30.249,266.445c-0.464,0.476-0.919,0.957-1.391,1.43c0.61-0.256,1.246-0.481,1.912-0.662
			c0.642-0.176,1.366,0.026,1.394,0.505c0.224,3.815-3.462,7.129-9.278,7.86c-0.037,0.078-0.065,0.156-0.099,0.234
			c2.075,0.746,4.269,1.373,6.562,1.868c4.75-2.82,8.847-6.192,13.123-9.162h-0.638C37.584,268.517,33.619,267.758,30.249,266.445z"
			/>
		<path fill="#FBC16C" d="M19.772,180.615c-5.667,3.41-11.114,6.981-16.587,10.532l-0.001,1.861
			c5.47-3.124,10.979-6.219,16.587-9.24L19.772,180.615z"/>
		<path fill="#FBC16C" d="M19.769,185.298c-5.605,3.038-11.113,6.145-16.587,9.28l-0.007,12.977
			c5.426-3.832,11.002-7.589,16.587-11.326L19.769,185.298z"/>
		<path fill="#FBC16C" d="M403.491,268.596l-13.771-0.003c-7.55,3.434-15.069,6.891-22.435,10.473l20.45,0.005
			C393.131,275.674,398.351,272.161,403.491,268.596z"/>
		<path fill="#FBC16C" d="M190.735,67.766c1.239-0.83,2.234-1.843,3.046-2.901c-2.241,0.803-3.792,1.983-4.695,3.504
			c0.397-0.174,0.777-0.353,1.107-0.499C190.379,67.788,190.565,67.757,190.735,67.766z"/>
		<path fill="none" d="M26.138,197.644c-2.127,1.084-4.254,2.167-6.376,3.254l-0.001,0.525
			C21.912,200.182,24.037,198.923,26.138,197.644z"/>
		<path fill="#FBC16C" d="M19.761,200.898c-5.563,2.844-11.102,5.707-16.586,8.61l-0.001,0.809
			c5.706-2.834,11.229-5.803,16.586-8.894L19.761,200.898z"/>
		<path fill="#FBC16C" d="M483.893,270.425c-2.454,1.9-4.809,3.825-7.157,5.646c-1.246,0.967-2.451,1.949-3.634,2.939
			c0.596-0.027,1.189-0.064,1.778-0.11C478.037,276.146,481.057,273.329,483.893,270.425z"/>
		<path fill="#FBC16C" d="M30.26,268.711c-2.956,1.169-5.247,3.247-6.678,5.569C27.474,273.52,29.888,271.293,30.26,268.711z"/>
		<path fill="#FBC16C" d="M11.766,131.791c1.686-0.895,3.327-1.821,4.918-2.776C15.017,129.92,13.376,130.845,11.766,131.791z"/>
		<path fill="#FBC16C" d="M482.564,70.52c-0.887,0.716-1.747,1.445-2.592,2.181c0.42,0.129,0.828,0.269,1.232,0.413
			C481.175,72.263,481.691,71.376,482.564,70.52z"/>
		<path fill="#FBC16C" d="M488.013,76.524c-0.149,0.012-0.3,0.019-0.451,0.024c0.054,0.044,0.109,0.089,0.164,0.134
			C487.82,76.628,487.919,76.577,488.013,76.524z"/>
		<path fill="#FBC16C" d="M499.817,261.718c-2.164,1.638-4.208,3.337-6.139,5.093C496.49,265.513,498.584,263.771,499.817,261.718z"
			/>
		<path fill="#FBC16C" d="M492.276,68.204c-0.071,0.148-0.148,0.296-0.224,0.444c0.53-0.573,0.947-1.194,1.235-1.86
			c-0.924,0.128-1.846,0.366-2.736,0.67c0.273-0.006,0.549-0.007,0.833,0.006C491.965,67.489,492.463,67.82,492.276,68.204z"/>
		<path fill="#FBC16C" d="M140.714,279.017l3.754,0.002c6.691-3.159,12.905-6.767,18.984-10.474l-0.964-0.001
			C155.146,271.972,147.76,275.366,140.714,279.017z"/>
		<path fill="#FBC16C" d="M490.089,68.666c-2.856,0.259-4.535,1.831-5.04,3.607c0.991-0.239,1.929-0.537,2.798-0.89
			C488.843,70.607,489.551,69.633,490.089,68.666z"/>
		<path fill="#FBC16C" d="M474.293,60.945c-1.314-0.085-2.647-0.13-3.995-0.131h-0.354c-6.038,3.177-11.675,6.629-16.491,10.473
			l3.252,0.001C463.359,68.195,470.197,65.189,474.293,60.945z"/>
		<path fill="#B17F4A" d="M51.271,60.725l-3.137-0.001c-2.648,1.329-5.345,2.611-8.142,3.799
			c-12.92,5.49-24.677,11.953-36.568,18.298c-0.082,0.538-0.13,1.081-0.154,1.628c12.726-6.735,25.239-13.638,39.041-19.503
			C45.404,63.633,48.37,62.207,51.271,60.725z"/>
		<path fill="#B17F4A" d="M21.691,79.548c-5.952,3.275-12.053,6.418-18.452,9.303l-0.002,1.414
			c5.983-2.669,11.708-5.564,17.282-8.59C20.82,80.94,21.216,80.231,21.691,79.548z"/>
		<path fill="#B17F4A" d="M38.564,71.361c6.083-3.581,12.148-7.175,18.359-10.635l-2.612-0.001
			c-6.477,3.644-12.811,7.417-19.191,11.153C36.232,71.652,37.381,71.475,38.564,71.361z"/>
		<path fill="#B17F4A" d="M41.939,71.2h1.089c6.53-3.564,12.945-7.209,19.795-10.472l-3.041-0.001
			c-6.748,3.328-13.116,6.991-19.661,10.524C40.722,71.219,41.326,71.2,41.939,71.2z"/>
		<path fill="#B17F4A" d="M4.251,91.962c0.174-0.204,0.313-0.413,0.567-0.583c0.816-0.551-0.491-1.381-1.309-0.828
			c-0.097,0.066-0.183,0.136-0.27,0.206l-0.001,1.939c0.12-0.029,0.236-0.075,0.346-0.147C3.845,92.371,4.068,92.178,4.251,91.962z"
			/>
		<path fill="#B17F4A" d="M54.32,71.203c6.696-3.494,13.461-6.937,20.097-10.472L71.63,60.73
			c-6.633,3.527-13.378,6.974-20.051,10.472L54.32,71.203z"/>
		<path fill="#B17F4A" d="M4.121,100.305c-0.798,0.559,0.508,1.39,1.31,0.828c4.542-3.179,9.374-6.152,14.389-8.996l0.002-2.874
			c-5.424,3.098-10.999,6.092-16.586,9.074l-0.001,1.51c3.102-1.663,6.201-3.327,9.279-5.006
			C9.63,96.601,6.823,98.415,4.121,100.305z"/>
		<path fill="#B17F4A" d="M60.988,71.204c6.867-3.473,13.672-6.997,20.536-10.472l-2.961-0.001
			c-6.859,3.483-13.672,7.006-20.545,10.472L60.988,71.204z"/>
		<path fill="#B17F4A" d="M88.216,71.21h3.193c6.005-2.624,12.053-5.213,18.045-7.843c1.994-0.875,3.988-1.753,5.987-2.629
			l-3.238-0.001c-0.348,0.152-0.693,0.305-1.04,0.457C103.533,64.551,95.834,67.844,88.216,71.21z"/>
		<path fill="#B17F4A" d="M78.638,71.208l2.861,0.001c5.626-2.959,11.281-5.896,16.939-8.829c1.053-0.546,2.108-1.094,3.163-1.644
			l-2.894-0.001c-0.981,0.507-1.96,1.015-2.937,1.52C90.04,65.226,84.322,68.205,78.638,71.208z"/>
		<path fill="#B17F4A" d="M19.811,107.587c-5.461,3.046-10.984,6.047-16.586,8.988l-0.001,1.529
			c5.605-2.926,11.123-5.92,16.586-8.953L19.811,107.587z"/>
		<path fill="#B17F4A" d="M19.812,105.697l0.001-1.621c-5.611,3.3-11.155,6.643-16.586,10.05l-0.001,1.669
			C8.657,112.372,14.194,109.009,19.812,105.697z"/>
		<path fill="#B17F4A" d="M19.801,125.879c-5.854,2.954-11.346,6.192-16.587,9.597v1.816c5.955-2.519,11.54-5.393,16.586-8.57
			L19.801,125.879z M16.683,129.015c-1.591,0.955-3.232,1.881-4.918,2.776C13.376,130.845,15.017,129.92,16.683,129.015z"/>
		<path fill="#B17F4A" d="M105.015,71.214l3.022,0.001c6.173-3.167,12.5-6.218,19.034-9.12c1.035-0.46,2.082-0.909,3.137-1.352
			l-3.24-0.001c-0.737,0.315-1.476,0.628-2.202,0.95C117.985,64.703,111.418,67.896,105.015,71.214z"/>
		<path fill="#B17F4A" d="M19.797,132.521c-5.642,2.404-11.169,4.914-16.586,7.516v1.452c5.412-2.621,10.944-5.142,16.585-7.563
			L19.797,132.521z"/>
		<path fill="#B17F4A" d="M19.803,121.698l0.001-1.583c-5.574,3.222-11.112,6.471-16.586,9.761l-0.001,1.617
			C8.688,128.189,14.228,124.932,19.803,121.698z"/>
		<path fill="#B17F4A" d="M19.79,147.8c-5.581,1.808-11.177,3.596-16.586,5.566l-0.001,1.332c5.392-1.999,10.989-3.799,16.584-5.605
			L19.79,147.8z"/>
		<path fill="#B17F4A" d="M19.788,149.368c-5.497,2.149-11.112,4.189-16.585,6.353l-0.001,1.354
			c5.451-2.187,11.069-4.23,16.586-6.364V149.368z"/>
		<path fill="#B17F4A" d="M19.785,156.833c-5.516,2.677-11.106,5.299-16.586,8.002l-0.002,1.477
			c5.464-2.718,11.055-5.342,16.586-8.014L19.785,156.833z"/>
		<path fill="#B17F4A" d="M19.782,162.49c-5.512,2.027-11.115,3.962-16.585,6.032l-0.002,1.368c5.459-2.087,11.06-4.03,16.586-6.049
			L19.782,162.49z"/>
		<path fill="#B17F4A" d="M141.364,71.221c7.01-3.658,14.247-7.174,21.718-10.473h-3.219c-7.353,3.311-14.475,6.827-21.382,10.471
			L141.364,71.221z"/>
		<path fill="#B17F4A" d="M171.605,71.228c6.364-3.172,12.657-6.403,19.205-9.406c-3.463,2.324-6.159,5.013-7.218,8.347
			c-0.111,0.346,0.253,0.771,0.892,0.741c6.345-0.306,9.815-3.602,12.012-7.059c0.259-0.408-0.513-0.859-1.139-0.719
			c-4.674,1.038-7.689,3.174-8.678,6.259c-0.008,0.023-0.006,0.046-0.009,0.069c-0.308,0.065-0.626,0.12-0.956,0.164
			c1.532-3.64,5.145-6.447,9.479-8.866l-5.214-0.001c-7.289,3.339-14.26,6.961-21.362,10.472L171.605,71.228z M193.781,64.864
			c-0.812,1.058-1.807,2.071-3.046,2.901c-0.17-0.009-0.355,0.022-0.542,0.104c-0.329,0.145-0.71,0.325-1.107,0.499
			C189.989,66.848,191.54,65.668,193.781,64.864z"/>
		<path fill="#B17F4A" d="M161.891,71.225l2.356,0.001c4.495-3.57,9.086-7.087,13.903-10.474h-2.474
			C170.911,64.146,166.355,67.661,161.891,71.225z"/>
		<path fill="#B17F4A" d="M147.269,71.223l3.032,0.001c5.826-2.852,11.693-5.672,17.523-8.522c-1.266,0.701-2.522,1.407-3.753,2.133
			c-0.876,0.515,0.437,1.341,1.31,0.827c2.891-1.704,5.892-3.325,8.939-4.909l-5.523-0.002c-4.875,2.393-9.782,4.76-14.681,7.132
			C151.828,68.992,149.547,70.105,147.269,71.223z"/>
		<path fill="#B17F4A" d="M191.956,71.232c4.455-3.296,8.314-6.941,12.324-10.475l-2.301-0.001
			c-4.059,3.555-8.018,7.162-12.551,10.475L191.956,71.232z"/>
		<path fill="#B17F4A" d="M19.759,205.501c-5.282,3.309-10.814,6.458-16.586,9.417l-0.002,1.492
			c5.764-2.912,11.3-6.009,16.587-9.268L19.759,205.501z"/>
		<path fill="#B17F4A" d="M216.907,71.238h2.199c4.199-3.85,9.375-7.223,14.825-10.474l-2.62-0.001
			C225.98,64.003,220.964,67.382,216.907,71.238z"/>
		<path fill="#B17F4A" d="M19.761,200.898v-1.485c-3.204,1.638-6.41,3.273-9.598,4.924c3.171-2.181,6.382-4.339,9.599-6.489
			l0.002-1.618c-5.585,3.738-11.162,7.494-16.587,11.326l-0.001,1.953C8.659,206.605,14.198,203.742,19.761,200.898z"/>
		<path fill="#B17F4A" d="M227.814,71.24c6.651-3.663,13.484-7.192,20.586-10.473h-3.13c-6.985,3.296-13.715,6.823-20.272,10.472
			L227.814,71.24z"/>
		<path fill="#B17F4A" d="M19.76,201.423c-5.357,3.09-10.881,6.06-16.586,8.894l-0.001,1.467c5.704-2.803,11.229-5.741,16.586-8.798
			L19.76,201.423z"/>
		<path fill="#B17F4A" d="M235.381,71.242h2.954c6.817-3.264,13.583-6.565,20.07-10.094c0.229-0.126,0.452-0.253,0.679-0.378
			l-2.823-0.001C249.542,64.442,242.486,67.862,235.381,71.242z"/>
		<path fill="#B17F4A" d="M269.41,69.804c-0.936,0.5-1.891,0.979-2.857,1.445l3.148,0.001c0.453-0.277,0.912-0.549,1.363-0.828
			c5.322-2.892,10.195-6.243,14.923-9.645l-2.61-0.001C278.811,63.842,274.181,66.868,269.41,69.804z"/>
		<path fill="#B17F4A" d="M258.513,71.246l2.72,0.001c5.912-3.47,11.791-6.958,17.632-10.474l-2.697-0.001
			C270.318,64.286,264.432,67.777,258.513,71.246z"/>
		<path fill="#B17F4A" d="M247.135,71.244c6.646-3.644,13.448-7.16,20.497-10.472l-3.066-0.001
			c-6.932,3.323-13.631,6.84-20.186,10.472L247.135,71.244z"/>
		<path fill="#B17F4A" d="M274.27,71.249c6.124-3.331,11.964-6.85,17.647-10.473h-2.628c-5.74,3.63-11.638,7.156-17.85,10.473
			H274.27z"/>
		<path fill="#B17F4A" d="M315.078,65.02c-2.979,2.003-5.863,4.085-8.629,6.237l2.464,0.001c2.105-1.615,4.274-3.196,6.497-4.74
			c2.809-1.952,5.771-3.884,8.881-5.733l-2.592-0.001C319.422,62.165,317.215,63.585,315.078,65.02z"/>
		<path fill="#B17F4A" d="M321.788,71.259l2.752,0.001c5.888-3.355,11.59-6.823,16.988-10.473h-2.528
			C333.524,64.434,327.745,67.902,321.788,71.259z"/>
		<path fill="#B17F4A" d="M317.178,71.259c6.624-3.441,13.322-6.823,19.614-10.472l-2.682-0.001
			c-6.385,3.63-13.156,7.008-19.803,10.472L317.178,71.259z"/>
		<path fill="#B17F4A" d="M19.77,183.768c-5.608,3.021-11.116,6.116-16.587,9.24l-0.001,1.569c5.474-3.135,10.983-6.242,16.587-9.28
			L19.77,183.768z"/>
		<path fill="#B17F4A" d="M19.772,180.615l0.002-1.6c-5.685,3.375-11.131,6.923-16.588,10.464l-0.001,1.669
			C8.657,187.596,14.104,184.025,19.772,180.615z"/>
		<path fill="#B17F4A" d="M19.75,222.902c-5.587,2.749-11.113,5.552-16.586,8.395v1.515c5.474-2.855,10.999-5.669,16.586-8.43
			L19.75,222.902z"/>
		<path fill="#B17F4A" d="M19.745,230.458c-5.59,2.187-11.132,4.42-16.585,6.733v1.401c5.448-2.327,10.99-4.569,16.586-6.763
			L19.745,230.458z"/>
		<path fill="#B17F4A" d="M19.743,235.165c-5.358,2.449-10.876,4.752-16.585,6.882l-0.001,1.363
			c5.71-2.101,11.227-4.378,16.585-6.798L19.743,235.165z"/>
		<path fill="#B17F4A" d="M19.738,244.059c-5.568,2.634-11.085,5.311-16.586,8.002l-0.002,1.491
			c5.509-2.684,11.028-5.358,16.586-7.998L19.738,244.059z"/>
		<path fill="#B17F4A" d="M22.24,261.01c-0.29-0.351-0.56-0.709-0.804-1.078c-4.405,2.237-8.804,4.496-13.08,6.839
			c0.337,0.368,0.689,0.73,1.056,1.085c2.663-1.488,5.348-2.961,8.103-4.401C19.082,262.636,20.66,261.822,22.24,261.01z"/>
		<path fill="#B17F4A" d="M409.888,71.279h2.703c3.445-2.189,6.859-4.402,10.261-6.634c1.968-1.292,3.954-2.572,5.961-3.839h-2.614
			c-0.816,0.519-1.63,1.043-2.442,1.567C419.136,65.362,414.538,68.341,409.888,71.279z"/>
		<path fill="#B17F4A" d="M399.132,71.277c6.782-3.662,13.804-7.145,21.014-10.472l-3.112-0.001
			c-7.113,3.327-14.034,6.813-20.719,10.472L399.132,71.277z"/>
		<path fill="#B17F4A" d="M392.627,71.275h2.561c5.48-3.594,11.087-7.118,16.92-10.473l-2.715-0.001
			C403.624,64.168,398.066,67.689,392.627,71.275z"/>
		<path fill="#B17F4A" d="M380.617,71.272l2.479,0.001c3.728-2.562,7.624-4.871,11.927-7.134c2.046-1.075,4.034-2.175,5.907-3.339
			l-2.686-0.001c-1.464,0.86-2.982,1.691-4.531,2.512C388.964,65.828,384.737,68.394,380.617,71.272z"/>
		<path fill="#B17F4A" d="M357.313,71.267c4.73-3.531,9.534-7.022,14.409-10.474l-2.482-0.001
			c-4.855,3.452-9.631,6.944-14.343,10.473L357.313,71.267z"/>
		<path fill="#B17F4A" d="M363.264,71.269c4.721-3.328,9.239-6.761,13.186-10.475h-2.242c-4.04,3.708-8.641,7.138-13.427,10.474
			L363.264,71.269z"/>
		<path fill="#B17F4A" d="M430.975,71.283c4.128-3.574,8.316-7.113,12.828-10.475h-2.414c-4.439,3.375-8.58,6.913-12.681,10.475
			H430.975z"/>
		<path fill="#B17F4A" d="M451.099,71.287l2.355,0.001c4.816-3.844,10.452-7.296,16.491-10.473h-2.869
			C461.198,63.996,455.746,67.453,451.099,71.287z"/>
		<path fill="#B17F4A" d="M456.705,71.288l2.965,0.001c6.413-2.993,12.791-5.993,16.62-10.179c-0.66-0.065-1.326-0.121-1.996-0.165
			C470.197,65.189,463.359,68.195,456.705,71.288z"/>
		<path fill="#B17F4A" d="M487.187,75.37c-0.579,0.026-1.141-0.06-1.655-0.219c0.724,0.437,1.403,0.904,2.03,1.398
			c0.151-0.005,0.302-0.012,0.451-0.024c-0.094,0.053-0.192,0.105-0.287,0.158c0.38,0.307,0.739,0.622,1.075,0.949
			c4.202-2.345,8.253-4.781,11.911-7.443c-0.386-0.31-0.784-0.614-1.19-0.911c-0.779,0.572-1.57,1.136-2.384,1.687
			c0.638-0.743,1.199-1.489,1.681-2.192c-0.44-0.303-0.893-0.6-1.354-0.887C495.534,71.04,491.99,75.149,487.187,75.37z"/>
		<path fill="#B17F4A" d="M479.843,70.829c-0.558,0.456-1.091,0.924-1.63,1.391c0.601,0.145,1.188,0.305,1.76,0.481
			c0.844-0.736,1.704-1.465,2.592-2.181c-0.873,0.856-1.389,1.743-1.36,2.595c0.96,0.345,1.873,0.735,2.733,1.163
			c-0.075-0.068-0.153-0.138-0.22-0.211c2.227-0.154,3.925-0.811,5.239-1.748c3.166-1.311,5.522-3.287,6.288-5.715
			c-0.633-0.339-1.281-0.667-1.948-0.98c-1.262,0.182-2.719,0.576-4.176,1.114c-0.276-0.05-0.587-0.032-0.863,0.117
			c-0.462,0.252-0.888,0.518-1.295,0.791c-0.706,0.334-1.378,0.699-2.009,1.082c2.02-1.377,4.296-2.63,6.547-3.894
			c-0.626-0.26-1.265-0.508-1.915-0.746c-0.022,0.012-0.045,0.024-0.066,0.037C485.844,66.118,482.797,68.411,479.843,70.829z
			 M493.286,66.789c-0.288,0.666-0.705,1.287-1.235,1.86c0.077-0.148,0.153-0.296,0.224-0.444c0.187-0.384-0.311-0.714-0.893-0.74
			c-0.284-0.013-0.56-0.012-0.833-0.006C491.44,67.155,492.362,66.917,493.286,66.789z M490.089,68.666
			c-0.539,0.967-1.246,1.941-2.242,2.716c-0.869,0.354-1.808,0.652-2.798,0.89C485.554,70.497,487.234,68.924,490.089,68.666z"/>
		<path fill="#B17F4A" d="M492.392,87.954c5.097-3.25,10.031-6.6,14.786-10.057c-0.215-0.429-0.453-0.852-0.703-1.269
			c-4.533,3.315-9.234,6.53-14.082,9.654L492.392,87.954z"/>
		<path fill="#B17F4A" d="M22.886,275.578c5.816-0.731,9.503-4.044,9.278-7.86c-0.028-0.479-0.752-0.681-1.394-0.505
			c-0.665,0.182-1.302,0.406-1.912,0.662c0.472-0.473,0.927-0.954,1.391-1.43c-0.896-0.35-1.749-0.738-2.553-1.161
			c-0.651,0.507-1.278,1.024-1.853,1.565c-3.723,1.674-7.192,3.545-10.212,5.661c0.458,0.269,0.928,0.53,1.407,0.783
			c1.969-1.377,4.121-2.652,6.424-3.828c-0.873,1.13-1.616,2.301-2.189,3.505c-0.55,0.495-1.088,0.995-1.65,1.485
			c-0.023,0.019-0.045,0.04-0.068,0.058c1.04,0.465,2.119,0.9,3.232,1.298C22.821,275.735,22.849,275.657,22.886,275.578z
			 M30.26,268.711c-0.372,2.582-2.786,4.81-6.678,5.569C25.013,271.959,27.304,269.881,30.26,268.711z"/>
		<path fill="#B17F4A" d="M44.991,268.519h-2.519c-4.276,2.97-8.372,6.342-13.123,9.162c0.679,0.147,1.365,0.282,2.061,0.405
			C36.28,275.108,40.53,271.609,44.991,268.519z"/>
		<path fill="#B17F4A" d="M63.733,268.523l-2.645-0.001c-5.808,3.504-11.686,7.245-18.053,10.474l2.682,0.001
			c5.764-3.073,11.141-6.493,16.584-9.645C62.779,269.075,63.257,268.799,63.733,268.523z"/>
		<path fill="#B17F4A" d="M71.284,268.524l-5.263-0.002c-1.435,0.654-2.856,1.317-4.243,2.007c-4.361,2.17-10.018,5.015-12.68,8.467
			l1.995,0.001c3.278-3.877,10.704-7.07,15.525-9.351c0.279-0.133,0.564-0.259,0.846-0.389c-4.787,3.016-9.241,6.252-12.927,9.741
			h2.214C60.879,275.218,65.924,271.741,71.284,268.524z"/>
		<path fill="#B17F4A" d="M80.58,268.527c-6.151,3.495-12.323,6.975-18.473,10.473l2.747,0.001
			c6.156-3.495,12.336-6.974,18.484-10.473L80.58,268.527z"/>
		<path fill="#B17F4A" d="M106.848,268.532l-2.611-0.001c-5.522,3.441-10.928,6.962-16.35,10.474h2.581
			C95.89,275.488,101.303,271.964,106.848,268.532z"/>
		<path fill="#B17F4A" d="M124.181,268.535l-2.706-0.001c-5.574,3.292-10.732,6.85-15.821,10.475l2.469,0.001
			C113.253,275.368,118.486,271.802,124.181,268.535z"/>
		<path fill="#B17F4A" d="M141.166,268.539c-9.111,3.317-18.112,6.735-26.786,10.472l3.279,0.001
			c8.816-3.724,17.951-7.14,27.176-10.472L141.166,268.539z"/>
		<path fill="#B17F4A" d="M163.452,268.545c-6.078,3.706-12.293,7.315-18.984,10.474h3.077c6.508-3.202,12.586-6.806,18.562-10.473
			L163.452,268.545z"/>
		<path fill="#B17F4A" d="M162.488,268.544l-3.078-0.001c-7.318,3.407-14.656,6.798-21.619,10.473h2.924
			C147.76,275.366,155.146,271.972,162.488,268.544z"/>
		<path fill="#B17F4A" d="M181.685,268.548l-2.506-0.001c-6.014,3.872-12.126,7.66-19.307,10.474h3.382
			C170.012,276.079,175.854,272.316,181.685,268.548z"/>
		<path fill="#B17F4A" d="M193.461,268.551l-2.51-0.001c-5.583,3.776-11.301,7.458-17.847,10.474l3.09,0.001
			C182.455,275.932,187.994,272.263,193.461,268.551z"/>
		<path fill="#B17F4A" d="M198.678,268.552l-2.681-0.001c-5.547,3.341-10.836,6.864-15.936,10.474h2.478
			C187.701,275.407,193.052,271.88,198.678,268.552z"/>
		<path fill="#B17F4A" d="M239.203,268.561l-2.64-0.001c-5.426,3.383-10.708,6.855-15.75,10.474l2.473,0.001
			C228.391,275.42,233.729,271.948,239.203,268.561z"/>
		<path fill="#B17F4A" d="M254.78,268.564c-4.443,3.695-9.413,7.169-14.639,10.474l2.586,0.001c5.134-3.306,10-6.781,14.339-10.474
			L254.78,268.564z"/>
		<path fill="#B17F4A" d="M262.525,268.566c-3.213,3.627-6.728,7.143-10.618,10.475h2.285c3.822-3.342,7.29-6.854,10.452-10.475
			H262.525z"/>
		<path fill="#B17F4A" d="M283.04,268.57l-2.605-0.001c-5.094,3.18-9.671,6.631-13.018,10.475h2.113
			C273.024,275.198,277.786,271.747,283.04,268.57z"/>
		<path fill="#B17F4A" d="M294.956,268.572c-5.286,3.477-10.532,6.979-15.791,10.475l2.553,0.001c5.26-3.498,10.515-7,15.813-10.475
			L294.956,268.572z"/>
		<path fill="#B17F4A" d="M312.329,268.576c-4.833,3.603-9.807,7.119-15.05,10.475l2.602,0.001
			c5.172-3.363,10.086-6.879,14.871-10.475L312.329,268.576z"/>
		<path fill="#B17F4A" d="M329.709,268.58l-2.507-0.001c-5.516,3.551-11.045,7.093-16.793,10.474h2.639
			C318.731,275.656,324.217,272.117,329.709,268.58z"/>
		<path fill="#B17F4A" d="M492.36,147.818l-0.001,2.266c4.159-4.172,8.51-8.262,13.482-12.092c1.016-0.783,2.057-1.553,3.106-2.317
			l0.001-2.399c-4.397,3.38-8.503,6.912-12.407,10.548C495.107,145.138,493.723,146.474,492.36,147.818z"/>
		<path fill="#B17F4A" d="M492.369,133.673l-0.002,1.799c3.223-2.389,6.312-4.858,9.333-7.343c2.414-1.987,4.822-3.972,7.255-5.941
			l0.001-1.897c-1.786,1.408-3.55,2.829-5.279,4.274C500.011,127.629,496.284,130.707,492.369,133.673z"/>
		<path fill="#B17F4A" d="M492.371,127.396l-0.002,1.869c5.991-4.776,11.425-9.89,16.59-15.063l0.002-2.189
			C503.783,117.272,498.355,122.5,492.371,127.396z"/>
		<path fill="#B17F4A" d="M492.376,117.635l-0.001,1.583c5.837-3.355,11.176-7.035,16.588-10.664v-1.676
			C503.507,110.507,498.171,114.22,492.376,117.635z"/>
		<path fill="#B17F4A" d="M492.386,99.469v1.579c5.797-3.37,11.186-7.028,16.586-10.685v-1.697
			C503.543,92.342,498.161,96.045,492.386,99.469z"/>
		<path fill="#B17F4A" d="M492.39,93.934l-0.002,1.817c5.147-3.943,10.604-7.721,16.56-11.147c-0.02-0.5-0.063-0.995-0.13-1.487
			C502.914,86.437,497.495,90.098,492.39,93.934z"/>
		<path fill="#B17F4A" d="M492.352,164.622c5.012-4.84,10.484-9.445,16.589-13.647l0.002-1.681
			c-6.093,4.082-11.57,8.556-16.588,13.265L492.352,164.622z"/>
		<path fill="#B17F4A" d="M492.34,186.686c5.611-4.396,11.093-8.864,16.587-13.33l0.002-1.894
			c-4.759,3.867-9.504,7.738-14.318,11.568c4.767-4.43,9.449-8.905,14.318-13.289l0.002-2.007
			c-5.675,5.051-11.06,10.238-16.59,15.354L492.34,186.686z"/>
		<path fill="#B17F4A" d="M492.337,192.753c5.497-4.205,11.012-8.4,16.587-12.564l0.001-1.802
			c-5.577,4.153-11.094,8.338-16.588,12.536V192.753z"/>
		<path fill="#B17F4A" d="M394.678,278.815c5.281-3.449,10.645-6.848,16.061-10.218l-2.612-0.001
			c-5.386,3.363-10.722,6.756-15.984,10.191c-0.143,0.094-0.288,0.189-0.432,0.283l2.575,0.001
			C394.415,278.986,394.546,278.9,394.678,278.815z"/>
		<path fill="#B17F4A" d="M413.143,268.597c-5.863,3.446-11.657,6.94-17.389,10.474l2.703,0.001
			c5.758-3.534,11.576-7.029,17.468-10.474L413.143,268.597z"/>
		<path fill="#B17F4A" d="M498.223,236.339c-1.889,1.961-3.875,3.881-5.913,5.782v2.263c6.388-5.686,12.491-11.631,16.59-17.946
			l0.003-3.636C506.264,227.561,502.329,232.073,498.223,236.339z"/>
		<path fill="#B17F4A" d="M492.319,225.714c5.74-3.672,11.286-7.461,16.587-11.392l0.001-1.814
			c-5.291,3.992-10.835,7.837-16.587,11.561L492.319,225.714z"/>
		<path fill="#B17F4A" d="M454.554,268.606h-2.384c-1.141,0.949-2.276,1.903-3.395,2.866c-2.965,2.543-5.927,5.095-8.963,7.609
			l2.318,0.001c2.148-1.791,4.262-3.599,6.37-5.408C450.486,271.967,452.513,270.283,454.554,268.606z"/>
		<path fill="#B17F4A" d="M492.326,212.825c5.761-5.285,11.263-10.687,16.59-16.151v-2.258c-5.336,5.498-10.839,10.932-16.59,16.253
			V212.825z"/>
		<path fill="#B17F4A" d="M492.314,236.133l-0.002,2.032c5.548-4.932,10.753-10.007,15.492-15.298
			c0.37-0.416,0.732-0.834,1.099-1.251l0.001-2.457c-0.625,0.736-1.251,1.472-1.891,2.203
			C502.541,226.477,497.588,231.373,492.314,236.133z"/>
		<path fill="#B17F4A" d="M462.763,268.608c-4.022,3.539-8.118,7.042-12.354,10.475l2.346-0.001
			c4.206-3.435,8.283-6.937,12.285-10.475H462.763z"/>
		<path fill="#B17F4A" d="M493.726,271.023c-2.124,1.802-4.25,3.686-6.465,5.55c1.371-0.428,2.692-0.907,3.965-1.429
			c1.115-0.961,2.215-1.917,3.309-2.854c4.78-4.094,9.71-8.243,13.561-12.722c0.372-1.147,0.612-2.324,0.72-3.523
			C504.997,261.432,499.303,266.289,493.726,271.023z"/>
		<path fill="#B17F4A" d="M488.781,265.136c-4.52,3.006-8.556,6.367-12.536,9.47c-1.919,1.496-3.841,2.975-5.718,4.475
			c0.865-0.005,1.723-0.031,2.575-0.071c1.183-0.99,2.387-1.972,3.634-2.939c2.349-1.821,4.704-3.746,7.157-5.646
			c-2.835,2.903-5.855,5.721-9.013,8.476c0.968-0.074,1.926-0.167,2.873-0.285c4.73-4.165,9.081-8.491,12.87-13.023
			c2.108-1.372,4.326-2.655,6.694-3.792c-2.66,2.077-5.146,4.242-7.458,6.501c-0.554,0.54,0.492,1.021,1.268,0.801
			c6.173-1.747,10.37-5.204,11.461-9.404c1.154-0.81,2.334-1.608,3.552-2.389c0.541-0.347,0.186-0.81-0.358-0.952
			c1.024-0.806,2.064-1.607,3.103-2.408l0.002-1.78c-2.999,2.324-6.113,4.605-8.821,7.035c-2.458,0.944-4.761,2.046-6.932,3.264
			c4.898-6.249,10.673-12.35,15.759-18.625v-2.553c-5.34,6.904-11.722,13.556-17.141,20.314
			C490.794,262.797,489.796,263.97,488.781,265.136z M493.677,266.811c1.931-1.756,3.975-3.455,6.139-5.093
			C498.584,263.771,496.49,265.513,493.677,266.811z"/>
		<path fill="#B17F4A" d="M363.603,268.587l-2.69-0.001c-5.58,3.344-10.996,6.795-15.966,10.475l2.441,0.001
			C352.454,275.387,357.957,271.938,363.603,268.587z"/>
		<path fill="#B17F4A" d="M403.491,268.596c-5.14,3.566-10.36,7.078-15.756,10.475h2.566c5.346-3.404,10.528-6.916,15.64-10.474
			L403.491,268.596z"/>
		<path fill="#B17F4A" d="M370.631,268.588l-2.325-0.001c-4.193,3.409-8.194,6.93-12.139,10.475l2.251,0.001
			C362.377,275.512,366.4,271.989,370.631,268.588z"/>
		<path fill="#B17F4A" d="M386.597,268.592c-7.516,3.423-14.985,6.885-22.296,10.472l2.985,0.001
			c7.366-3.582,14.884-7.039,22.435-10.473H386.597z"/>
	</g>
</g>
<path fill="#FFB200" d="M252.51,8.616c-1.057,3.684-5.332,5.9-9.548,4.947c-4.215-0.952-6.775-4.71-5.718-8.394
	s5.332-5.9,9.548-4.947C251.008,1.172,253.567,4.931,252.51,8.616z"/>
</svg>
